PathFileType	4	(X/Y/Z)	Patient4_TMGait_0pt6_02_left_33.trc.trc
DataRate	CameraRate	NumFrames	NumMarkers	Units	OrigDataRate	OrigDataStartFrame	OrigNumFrames
82.352941176470	82.352941176470	4	33	mm	82.352941176470	89	       141
Frame#	Time	Sacral			L.Shoulder			Chest			R.Shoulder			Neck			R.ASIS			L.ASIS			R.Thigh.Superior			R.Thigh.Lateral			R.Thigh.Inferior			R.Patella			L.Thigh.Superior			L.Thigh.Lateral			L.Thigh.Inferior			L.Patella			L.Shank.Superior			L.Shank.Lateral			L.Shank.Inferior			R.Shank.Superior			R.Shank.Lateral			R.Shank.Inferior			R.Heel			R.Midfoot.Superior			R.Midfoot.Lateral			R.Toe			L.Heel			L.Midfoot.Lateral			L.Midfoot.Superior			L.Toe			L.Elbow			L.Wrist			R.Elbow			R.Wrist			
		X1	Y1	Z1	X2	Y2	Z2	X3	Y3	Z3	X4	Y4	Z4	X5	Y5	Z5	X6	Y6	Z6	X7	Y7	Z7	X8	Y8	Z8	X9	Y9	Z9	X10	Y10	Z10	X11	Y11	Z11	X12	Y12	Z12	X13	Y13	Z13	X14	Y14	Z14	X15	Y15	Z15	X16	Y16	Z16	X17	Y17	Z17	X18	Y18	Z18	X19	Y19	Z19	X20	Y20	Z20	X21	Y21	Z21	X22	Y22	Z22	X23	Y23	Z23	X24	Y24	Z24	X25	Y25	Z25	X26	Y26	Z26	X27	Y27	Z27	X28	Y28	Z28	X29	Y29	Z29	X30	Y30	Z30	X31	Y31	Z31	X32	Y32	Z32	X33	Y33	Z33	

89	41.358571428571	810.593635322467	1006.674667431731	480.513141622164	992.911293949528	1434.050296293355	294.594908149398	1094.680337149661	1360.817757608794	453.289722252539	1014.223036304947	1437.999545280504	625.980918081521	991.563306767546	1492.835316427624	446.306694858007	1040.688433779299	938.295726002957	590.532567204772	1022.385532727064	962.928868026615	315.912412452957	1096.761932464743	747.010185026357	560.313049188918	1024.140537003714	632.995319817103	619.870310045069	1106.412858383393	587.080619580390	539.739382261048	1115.611598313560	497.066967141959	546.404048422380	1048.645303303729	738.158117806402	334.265863051523	951.599834551687	629.345906763077	272.185530462363	1036.028088925748	539.209957929203	324.218638932907	1023.687103713826	454.451806900666	321.277650221896	953.201340983582	400.391226798960	318.441113099361	810.187130973808	360.496404668843	275.809157656195	796.051790635947	232.596828618775	332.131091381968	1088.242928003492	407.585766212388	553.464563189114	1019.459650910834	301.387756214845	612.972687721752	1065.253372668543	208.008871754871	550.821098047394	937.255899880403	42.536441267736	517.828800360491	1107.105764738855	97.690335698854	557.600015083932	1018.651924146986	37.148669522899	594.765817126280	1227.037892705252	44.845415135064	588.680875865692	605.927877985984	170.481641459149	377.468618193628	659.597690461498	121.944035577766	297.037292871906	764.390663152643	129.564924338462	314.109033009207	839.865363243506	30.800381081426	288.572162104709	1005.605448773501	1088.799947424969	162.371975396616	1252.828730072643	1014.793445761736	163.235149387398	905.347667496063	1111.886328139424	751.157815154966	924.611034509213	850.551008812555	737.177784836558	
90	41.370714285714	810.587130061237	1008.044776640688	483.843432502601	991.709864406886	1435.236890864031	296.906242174349	1095.061657600101	1361.683105021253	454.502272034781	1016.379166203822	1438.619282614015	628.054965564577	991.785401497349	1493.773373059992	448.741934569913	1041.072633973758	939.117938108876	592.259235519920	1021.259392288961	963.782601752643	317.545553310929	1094.315596825967	745.907388665991	563.051326243399	1019.578874451138	633.116825734412	621.807973869374	1101.088130032327	586.237537735052	541.508787036263	1108.801031561580	496.542865922727	547.703131773131	1053.493851901417	741.497438454712	337.033481927576	961.597277094791	630.075919987099	273.756419291471	1048.619295207194	542.123742607831	326.550190914620	1037.760685663686	456.123324982384	323.032357010263	965.589824897718	402.025240215882	319.884805618525	821.392711850837	366.689886394320	276.800648014890	803.193018526836	239.259453500652	332.900984154948	1081.445398743254	407.377649064817	554.712230830233	1012.488221667787	301.167831682257	613.869342515768	1058.174368573136	207.900590352749	551.415331223743	929.984699023119	42.494566791585	517.948937008733	1099.923066465686	97.452833730887	557.910014399310	1011.348189507479	37.086831968196	594.884258668840	1219.778710474005	44.573858604045	588.848479553357	611.124976718076	185.976612543482	377.637201532848	662.499100135141	134.722041665175	297.170059893643	767.802509676246	136.324097423611	314.608727556297	837.197503234353	30.787861875200	288.704480538111	1000.224102504392	1088.677474245268	166.605057039268	1243.817306214578	1001.749376271948	165.725227615220	914.951731445403	1110.243412617246	755.366178576727	945.309664207380	850.048623311971	739.591238098624	
91	41.382857142857	810.335523733917	1009.313563957728	487.027813648437	990.338100502303	1436.239758987945	299.082120784552	1095.338285038518	1362.304298248535	455.508262934944	1018.562702464532	1439.017277540496	629.981095562788	992.000069531690	1494.546832738450	451.021772366106	1041.200948039702	939.787048021708	593.855733971626	1020.111182275560	964.562044779993	319.045171816697	1091.642599903025	744.856338567314	565.473498826600	1015.038136354485	633.253758609144	623.660403865977	1095.661773199694	585.431184054348	543.096483147933	1101.920553966445	496.074490090651	548.898625283630	1058.058201549360	745.131649703557	339.955298306100	971.533296058899	631.294863239185	275.263436916624	1060.945671054773	545.667442716838	328.992945193257	1051.805899410530	458.504496548725	324.922469067744	978.268642113671	404.159943924162	321.374836739571	833.143485952575	372.827583753098	277.805860356805	811.340912064932	245.890657883730	333.767928274211	1074.631451174446	407.193429565287	555.870134330218	1005.530353583253	300.975620947529	614.747000167732	1051.077348207864	207.808012701137	551.978736190406	922.676303923301	42.471004446423	518.072783759618	1092.645571566511	97.259879820935	558.096184208156	1004.015053674762	37.030964210298	595.002324946388	1212.492846979580	44.286107268828	588.992186504964	617.790016986923	200.306394086658	377.925740162549	667.157057104247	146.877474940188	297.382497090038	772.725410255934	143.243393184562	315.208123848935	836.697757963066	31.466019708202	288.803887381468	994.962055479961	1088.420213952516	170.699084212896	1233.866685375095	987.870173654824	168.220697991862	924.998211226973	1108.507589144224	759.416984754664	966.644886563079	849.968402386806	741.822823925407	
92	41.395000000000	809.854902747637	1010.478349908489	490.065628791943	988.838073989388	1437.068499412850	301.117331048577	1095.509054978375	1362.707395886047	456.328158861721	1020.734670465358	1439.234558735904	631.753150152048	992.222421479631	1495.174070119316	453.128959994488	1041.086326544916	940.327763822780	595.336532786712	1018.918344378645	965.284237678026	320.442524682295	1088.798086215455	743.887261808346	567.568702776539	1010.565498222554	633.408123824124	625.424834354526	1090.198385156940	584.666144837882	544.517841519882	1095.047430607550	495.662494046954	549.996090996320	1062.254486399179	749.060476265631	342.986810767878	981.212391787783	633.051527581598	276.681594946459	1072.828360749131	549.851606472152	331.423174498820	1065.642503868467	461.626483629544	326.784240060041	991.089716821352	406.812387088179	322.804562157659	845.261764035469	378.751249406177	278.798915180911	820.514979373216	252.246371918048	334.665078278923	1067.859085776483	407.031800034458	556.938109176227	998.628698288845	300.818755395046	615.604713002699	1043.989189997129	207.731728573091	552.511648470732	915.341258923071	42.468145506049	518.202756215561	1085.310939865778	97.114642100416	558.206843791054	996.663638876652	36.984730943367	595.122655805512	1205.189167570674	44.000865574727	589.119013228104	625.898541424757	212.816537285298	378.324571011973	673.672335967376	157.822779998965	297.661227488440	779.331482151145	149.995795068187	315.843007130748	838.858104177806	32.891120441098	288.842847464888	989.851423749131	1088.037020412291	174.668918860820	1222.871636561718	973.310586180129	170.732319123653	935.505281945785	1106.712879430254	763.242890109689	988.559418314406	850.377438227379	743.786580267300	
